<svg width="49" height="65" viewBox="0 0 49 65" fill="none" xmlns="http://www.w3.org/2000/svg">
<path fill-rule="evenodd" clip-rule="evenodd" d="M34.3839 2.96254C34.8461 4.08113 35.038 5.41943 35.038 6.86546V26.3634H42.1116C44.5121 26.3634 47.1016 27.0978 48.1455 29.4092C49.1898 31.7216 48.0256 34.1453 46.441 35.9354C46.4403 35.9362 46.4395 35.937 46.4388 35.9379L23.5598 61.9299C22.6045 63.0143 21.576 63.8922 20.4911 64.4273C19.3966 64.9671 18.0678 65.2334 16.7496 64.7385C15.4302 64.2432 14.6053 63.1669 14.1385 62.0374C13.6763 60.9188 13.4844 59.5805 13.4844 58.1344V38.6365H6.41077C4.02718 38.6365 1.44602 37.9109 0.400836 35.6048C-0.642054 33.3039 0.504474 30.8813 2.06858 29.0792L2.07895 29.0672L24.9626 3.07003C25.9179 1.98561 26.9464 1.10768 28.0313 0.572612C29.1258 0.0327978 30.4546 -0.233459 31.7728 0.261411C33.0922 0.75675 33.9171 1.83297 34.3839 2.96254ZM28.3663 6.06603C29.0884 5.24646 29.6625 4.82402 30.037 4.6393C30.0781 4.61901 30.1145 4.60261 30.1463 4.58938C30.1608 4.61914 30.1765 4.65386 30.1931 4.69418C30.3516 5.07761 30.5036 5.77223 30.5036 6.86546V28.6306C30.5036 29.8827 31.5186 30.8978 32.7708 30.8978H42.1116C42.964 30.8978 43.501 31.032 43.7949 31.1627C43.9049 31.2117 43.968 31.2533 44.0017 31.2801C43.9994 31.3224 43.9888 31.3957 43.9536 31.5077C43.858 31.811 43.6053 32.2981 43.0444 32.9314L43.0398 32.9366L20.1568 58.9332C19.4343 59.7532 18.86 60.1758 18.4854 60.3606C18.4443 60.3809 18.4079 60.3973 18.3761 60.4105C18.3616 60.3808 18.3459 60.346 18.3293 60.3057C18.1708 59.9223 18.0188 59.2277 18.0188 58.1344V36.3693C18.0188 35.1172 17.0038 34.1021 15.7516 34.1021H6.41077C5.56472 34.1021 5.03299 33.9694 4.74275 33.8406C4.63637 33.7934 4.57479 33.7533 4.5416 33.7272C4.54357 33.684 4.55383 33.6087 4.58957 33.493C4.68438 33.186 4.93468 32.6958 5.48827 32.0569L28.3663 6.06603C28.3665 6.0658 28.3661 6.06626 28.3663 6.06603Z" fill="#8DC642"/>
</svg>
