<svg width="65" height="65" viewBox="0 0 65 65" fill="none" xmlns="http://www.w3.org/2000/svg">
<path fill-rule="evenodd" clip-rule="evenodd" d="M6.81843 6.81838C5.41102 8.22576 4.53488 10.6537 4.53488 14.965V25.849C4.53488 30.1602 5.41102 32.5882 6.81843 33.9956C8.22584 35.403 10.6539 36.2791 14.9651 36.2791H24.3094C24.6449 32.8089 25.6721 29.9085 27.7903 27.7903C29.9085 25.6721 32.8089 24.6449 36.2791 24.3094V14.965C36.2791 10.6537 35.4029 8.22576 33.9955 6.81838C32.5881 5.41099 30.1601 4.53488 25.8488 4.53488H14.9651C10.6539 4.53488 8.22584 5.41099 6.81843 6.81838ZM3.61181 3.6117C6.28579 0.937772 10.2066 0 14.9651 0H25.8488C30.6073 0 34.5282 0.937772 37.2021 3.6117C39.8761 6.28565 40.814 10.2064 40.814 14.965V26.4535C40.814 27.6899 39.8234 28.6984 38.5871 28.7206C34.6146 28.7918 32.3402 29.6537 30.9969 30.9969C29.6537 32.3402 28.7918 34.6146 28.7206 38.5871C28.6984 39.8234 27.6899 40.814 26.4535 40.814H14.9651C10.2066 40.814 6.28579 39.8762 3.61181 37.2023C0.937817 34.5283 0 30.6075 0 25.849V14.965C0 10.2064 0.937817 6.28565 3.61181 3.6117Z" fill="#F79B1D"/>
<path fill-rule="evenodd" clip-rule="evenodd" d="M10.6207 12.1851C13.0092 10.4726 16.162 10.4785 18.5368 12.0916C19.5727 12.7953 19.8421 14.2054 19.1385 15.2413C18.4348 16.2772 17.0247 16.5466 15.9888 15.843C15.159 15.2793 14.0792 15.2854 13.2631 15.8706C12.2454 16.6003 10.8288 16.3668 10.0991 15.349C9.36946 14.3313 9.60296 12.9148 10.6207 12.1851Z" fill="#F79B1D"/>
<path fill-rule="evenodd" clip-rule="evenodd" d="M22.7137 12.1851C25.1022 10.4726 28.255 10.4785 30.6299 12.0916C31.6658 12.7953 31.9351 14.2054 31.2315 15.2413C30.5279 16.2772 29.1177 16.5466 28.0818 15.843C27.252 15.2793 26.1723 15.2854 25.3561 15.8706C24.3384 16.6003 22.9219 16.3668 22.1922 15.349C21.4625 14.3313 21.696 12.9148 22.7137 12.1851Z" fill="#F79B1D"/>
<path fill-rule="evenodd" clip-rule="evenodd" d="M14.5454 28.4792C14.8627 25.5246 17.3689 23.2188 20.4069 23.2188C21.8164 23.2188 23.1005 23.7018 24.095 24.5018C25.0708 25.2866 26.4981 25.1319 27.283 24.1561C28.0679 23.1803 27.9131 21.753 26.9373 20.9681C25.1504 19.5308 22.8671 18.6839 20.4069 18.6839C14.65 18.6839 9.97665 23.357 9.97665 29.114C9.97665 31.273 11.7172 33.0141 13.8766 33.0141H20.8906C22.1429 33.0141 23.158 31.9989 23.158 30.7466C23.158 29.4944 22.1429 28.4792 20.8906 28.4792H14.5454Z" fill="#F79B1D"/>
<path fill-rule="evenodd" clip-rule="evenodd" d="M38.5465 24.186H50.0349C54.7934 24.186 58.7142 25.1238 61.3882 27.7978C64.0622 30.4717 65 34.3925 65 39.151V50.035C65 54.7936 64.0622 58.7144 61.3882 61.3883C58.7142 64.0622 54.7934 65 50.0349 65H39.1512C34.3927 65 30.4718 64.0622 27.7979 61.3883C25.1239 58.7144 24.186 54.7936 24.186 50.035V38.5059C24.266 34.0435 25.2335 30.347 27.7903 27.7903C30.347 25.2335 34.0435 24.2664 38.5059 24.1864L38.5465 24.186ZM38.5672 28.7209C34.607 28.7946 32.3379 29.6559 30.9969 30.9969C29.6559 32.3379 28.7946 34.607 28.7209 38.5672V50.035C28.7209 54.3463 29.5971 56.7742 31.0045 58.1816C32.4119 59.589 34.8399 60.4651 39.1512 60.4651H50.0349C54.3461 60.4651 56.7742 59.589 58.1816 58.1816C59.589 56.7742 60.4651 54.3463 60.4651 50.035V39.151C60.4651 34.8398 59.589 32.4118 58.1816 31.0044C56.7742 29.597 54.3461 28.7209 50.0349 28.7209H38.5672Z" fill="#F79B1D"/>
<path fill-rule="evenodd" clip-rule="evenodd" d="M34.2852 36.0159C35.0149 34.9982 36.4314 34.7647 37.4491 35.4944C38.2653 36.0795 39.345 36.0856 40.1748 35.522C41.2107 34.8184 42.6209 35.0877 43.3245 36.1236C44.0282 37.1595 43.7588 38.5697 42.7229 39.2733C40.348 40.8864 37.1952 40.8924 34.8067 39.1799C33.789 38.4502 33.5555 37.0336 34.2852 36.0159Z" fill="#F79B1D"/>
<path fill-rule="evenodd" clip-rule="evenodd" d="M46.3782 36.0159C47.1079 34.9982 48.5244 34.7647 49.5422 35.4944C50.3583 36.0795 51.4381 36.0856 52.2678 35.522C53.3037 34.8184 54.7139 35.0877 55.4175 36.1236C56.1212 37.1595 55.8518 38.5697 54.8159 39.2733C52.441 40.8864 49.2883 40.8924 46.8997 39.1799C45.882 38.4502 45.6485 37.0336 46.3782 36.0159Z" fill="#F79B1D"/>
<path fill-rule="evenodd" clip-rule="evenodd" d="M38.7315 47.4048C39.0489 50.3594 41.5552 52.6652 44.5929 52.6652C47.6307 52.6652 50.1369 50.3594 50.4544 47.4048H38.7315ZM34.1627 46.7697C34.1627 44.61 35.9039 42.8699 38.0627 42.8699H51.1232C53.2819 42.8699 55.0232 44.61 55.0232 46.7697C55.0232 52.5265 50.3499 57.2001 44.5929 57.2001C38.8359 57.2001 34.1627 52.5265 34.1627 46.7697Z" fill="#F79B1D"/>
</svg>
