<svg width="58" height="58" viewBox="0 0 58 58" fill="none" xmlns="http://www.w3.org/2000/svg">
<path fill-rule="evenodd" clip-rule="evenodd" d="M25.6278 8.76752C25.6278 7.65011 26.5336 6.74426 27.6511 6.74426H42.4883C46.5731 6.74426 49.9069 10.078 49.9069 14.1629V39.7908C49.9069 40.9082 49.001 41.814 47.8836 41.814C46.7662 41.814 45.8604 40.9082 45.8604 39.7908V14.1629C45.8604 12.3128 44.3383 10.7908 42.4883 10.7908H27.6511C26.5336 10.7908 25.6278 9.88493 25.6278 8.76752Z" fill="#F79B1D"/>
<path fill-rule="evenodd" clip-rule="evenodd" d="M35.9496 0.728049C36.665 1.58647 36.549 2.86226 35.6906 3.57761L29.4627 8.76749L35.6906 13.9574C36.549 14.6727 36.665 15.9485 35.9496 16.8069C35.2343 17.6653 33.9585 17.7813 33.1001 17.066L25.0071 10.3218C24.5458 9.93739 24.2791 9.36795 24.2791 8.76749C24.2791 8.16702 24.5458 7.59758 25.0071 7.21318L33.1001 0.468998C33.9585 -0.246352 35.2343 -0.130371 35.9496 0.728049Z" fill="#F79B1D"/>
<path fill-rule="evenodd" clip-rule="evenodd" d="M47.8836 41.814C44.5314 41.814 41.8138 44.5315 41.8138 47.8837C41.8138 51.236 44.5314 53.9535 47.8836 53.9535C51.2358 53.9535 53.9534 51.236 53.9534 47.8837C53.9534 44.5315 51.2358 41.814 47.8836 41.814ZM37.7673 47.8837C37.7673 42.2967 42.2965 37.7675 47.8836 37.7675C53.4707 37.7675 57.9999 42.2967 57.9999 47.8837C57.9999 53.4708 53.4707 58 47.8836 58C42.2965 58 37.7673 53.4708 37.7673 47.8837Z" fill="#F79B1D"/>
<path fill-rule="evenodd" clip-rule="evenodd" d="M10.1163 16.186C11.2337 16.186 12.1395 17.0919 12.1395 18.2093V43.8372C12.1395 45.6872 13.6616 47.2093 15.5116 47.2093H30.3488C31.4662 47.2093 32.3721 48.1151 32.3721 49.2325C32.3721 50.3499 31.4662 51.2558 30.3488 51.2558H15.5116C11.4268 51.2558 8.09302 47.922 8.09302 43.8372V18.2093C8.09302 17.0919 8.99886 16.186 10.1163 16.186Z" fill="#F79B1D"/>
<path fill-rule="evenodd" clip-rule="evenodd" d="M22.0503 41.1931C22.7656 40.3347 24.0414 40.2187 24.8999 40.9341L32.9929 47.6783C33.4542 48.0627 33.7209 48.6321 33.7209 49.2326C33.7209 49.833 33.4542 50.4025 32.9929 50.7869L24.8999 57.5311C24.0414 58.2464 22.7656 58.1304 22.0503 57.272C21.3349 56.4136 21.4509 55.1378 22.3093 54.4224L28.5372 49.2326L22.3093 44.0427C21.4509 43.3273 21.3349 42.0516 22.0503 41.1931Z" fill="#F79B1D"/>
<path fill-rule="evenodd" clip-rule="evenodd" d="M10.1163 4.04651C6.76403 4.04651 4.04651 6.76403 4.04651 10.1163C4.04651 13.4685 6.76403 16.186 10.1163 16.186C13.4685 16.186 16.186 13.4685 16.186 10.1163C16.186 6.76403 13.4685 4.04651 10.1163 4.04651ZM0 10.1163C0 4.52921 4.52921 0 10.1163 0C15.7033 0 20.2325 4.52921 20.2325 10.1163C20.2325 15.7033 15.7033 20.2325 10.1163 20.2325C4.52921 20.2325 0 15.7033 0 10.1163Z" fill="#F79B1D"/>
</svg>
