<svg width="58" height="58" viewBox="0 0 58 58" fill="none" xmlns="http://www.w3.org/2000/svg">
<path fill-rule="evenodd" clip-rule="evenodd" d="M44.9313 4.04603C42.1913 4.04603 39.9951 6.24226 39.9951 8.9822C39.9951 11.62 42.0239 13.7459 44.592 13.9125C44.8074 13.8934 45.0281 13.8934 45.2435 13.9125C47.8072 13.7461 49.8448 11.6229 49.8674 8.97498C49.8635 6.2602 47.6637 4.04603 44.9313 4.04603ZM35.9491 8.9822C35.9491 4.00771 39.9567 0 44.9313 0C49.9109 0 53.9134 4.03979 53.9134 8.9822V8.99665H53.9134C53.8787 13.849 50.0592 17.7887 45.2473 17.9631C45.1372 17.9671 45.027 17.9621 44.9178 17.9481C44.8086 17.9621 44.6984 17.9671 44.5883 17.9631C39.7789 17.7888 35.9491 13.8483 35.9491 8.9822Z" fill="#F79B1D"/>
<path fill-rule="evenodd" clip-rule="evenodd" d="M41.9657 20.5033C46.0665 19.7849 50.7425 20.4698 54.1418 22.7254L54.1455 22.7278C56.4689 24.2768 57.8988 26.5213 57.8988 29.0235C57.8988 31.5258 56.4689 33.7703 54.1455 35.3193C50.7713 37.5776 46.1513 38.2599 42.0608 37.5732C40.9589 37.3882 40.2156 36.345 40.4006 35.2432C40.5856 34.1413 41.6288 33.398 42.7307 33.583C46.0294 34.1368 49.5535 33.5252 51.8975 31.9552L51.9011 31.9528C53.3809 30.9662 53.8527 29.866 53.8527 29.0235C53.8527 28.1814 53.3813 27.0818 51.903 26.0956C49.53 24.5218 45.953 23.9124 42.6639 24.4886C41.5633 24.6814 40.5149 23.9455 40.3221 22.845C40.1293 21.7445 40.8652 20.696 41.9657 20.5033Z" fill="#F79B1D"/>
<path fill-rule="evenodd" clip-rule="evenodd" d="M3.98529 8.9822C3.98529 4.03978 7.98788 0 12.9675 0C17.942 0 21.9497 4.00771 21.9497 8.9822C21.9497 13.8483 18.1198 17.7888 13.3105 17.9631C13.2004 17.9671 13.0902 17.9621 12.981 17.9481C12.8718 17.9621 12.7616 17.9671 12.6515 17.9631C7.83957 17.7887 4.02 13.849 3.98534 8.99665L3.98529 8.9822ZM8.03133 8.975C8.05392 11.6229 10.0915 13.7461 12.6553 13.9125C12.8707 13.8934 13.0913 13.8934 13.3067 13.9125C15.8749 13.7459 17.9036 11.62 17.9036 8.9822C17.9036 6.24226 15.7074 4.04603 12.9675 4.04603C10.2351 4.04603 8.03521 6.26021 8.03133 8.975Z" fill="#F79B1D"/>
<path fill-rule="evenodd" clip-rule="evenodd" d="M5.99581 26.0955C8.36883 24.5218 11.9458 23.9124 15.2349 24.4886C16.3354 24.6814 17.3839 23.9455 17.5766 22.845C17.7694 21.7445 17.0336 20.696 15.9331 20.5033C11.8322 19.7849 7.15627 20.4698 3.75694 22.7254L3.75694 22.7254L3.7533 22.7278C1.42984 24.2768 0 26.5213 0 29.0235C0 31.5251 1.42909 33.7691 3.75147 35.3181C7.12577 37.5773 11.7467 38.2601 15.838 37.5732C16.9399 37.3882 17.6831 36.345 17.4982 35.2432C17.3132 34.1413 16.27 33.398 15.1681 33.583C11.8693 34.1368 8.34524 33.5252 6.0013 31.9552L5.99764 31.9528C4.51783 30.9662 4.04603 29.866 4.04603 29.0235C4.04603 28.1814 4.51744 27.0818 5.99581 26.0955Z" fill="#F79B1D"/>
<path fill-rule="evenodd" clip-rule="evenodd" d="M28.7471 24.1953C26.0072 24.1953 23.811 26.3916 23.811 29.1315C23.811 31.7693 25.8397 33.8952 28.4079 34.0618C28.6263 34.0424 28.8501 34.0427 29.0684 34.0626C31.6114 33.9168 33.6606 31.7865 33.6833 29.1243C33.6794 26.4095 31.4795 24.1953 28.7471 24.1953ZM19.7649 29.1315C19.7649 24.157 23.7726 20.1493 28.7471 20.1493C33.7267 20.1493 37.7293 24.1891 37.7293 29.1315V29.146H37.7293C37.6947 33.9853 33.8849 37.9727 29.0485 38.1129C28.9433 38.1159 28.838 38.1107 28.7336 38.0974C28.6244 38.1114 28.5142 38.1164 28.4041 38.1124C23.5948 37.9381 19.7649 33.9976 19.7649 29.1315Z" fill="#F79B1D"/>
<path fill-rule="evenodd" clip-rule="evenodd" d="M29 40.42C32.1519 40.42 35.4125 41.2049 37.9614 42.9041C40.2849 44.4531 41.7147 46.6976 41.7147 49.1999C41.7147 51.7018 40.2852 53.946 37.9623 55.495C35.4026 57.2062 32.1431 58 28.9899 58C25.8367 58 22.5772 57.2062 20.0176 55.495C17.6946 53.9461 16.2651 51.7018 16.2651 49.1999C16.2651 46.6976 17.695 44.4531 20.0184 42.9041L20.0233 42.9009L20.0233 42.9009C22.583 41.2051 25.8476 40.42 29 40.42ZM22.2604 46.2722C20.7825 47.2584 20.3112 48.3579 20.3112 49.1999C20.3112 50.0423 20.783 51.1426 22.2628 52.1291L22.2652 52.1307C24.0211 53.3049 26.4523 53.954 28.9899 53.954C31.5275 53.954 33.9588 53.3049 35.7146 52.1307L35.7171 52.1291C37.1969 51.1426 37.6687 50.0423 37.6687 49.1999C37.6687 48.3574 37.1969 47.2572 35.7171 46.2706C33.9772 45.1107 31.5463 44.466 29 44.466C26.4555 44.466 24.0162 45.1099 22.2604 46.2722Z" fill="#F79B1D"/>
</svg>
