<svg width="58" height="58" viewBox="0 0 58 58" fill="none" xmlns="http://www.w3.org/2000/svg">
<path fill-rule="evenodd" clip-rule="evenodd" d="M29 4.04651C23.3864 4.04651 18.1971 5.91654 14.0264 9.03837C13.1318 9.70796 11.8638 9.52558 11.1942 8.63101C10.5246 7.73643 10.707 6.46843 11.6016 5.79884C16.441 2.17648 22.4741 0 29 0C45.0086 0 58 12.9914 58 29C58 45.0086 45.0086 58 29 58C12.9914 58 0 45.0086 0 29C0 23.7547 1.39204 18.8202 3.8596 14.5528C4.41781 13.5874 5.65189 13.2557 6.61886 13.8111L30.0077 27.2456C30.9767 27.8021 31.311 29.0388 30.7544 30.0077C30.1979 30.9767 28.9612 31.311 27.9923 30.7544L6.42423 18.3659C4.89401 21.595 4.04651 25.1975 4.04651 29C4.04651 42.7737 15.2263 53.9535 29 53.9535C42.7737 53.9535 53.9535 42.7737 53.9535 29C53.9535 15.2263 42.7737 4.04651 29 4.04651Z" fill="#F79B1D"/>
<path fill-rule="evenodd" clip-rule="evenodd" d="M21.2448 12.528C23.6016 11.3955 26.2488 10.7907 29.0001 10.7907C39.0468 10.7907 47.2094 18.9533 47.2094 29C47.2094 39.0467 39.0468 47.2093 29.0001 47.2093C18.9534 47.2093 10.7908 39.0467 10.7908 29C10.7908 25.6366 11.7008 22.474 13.3147 19.7638C13.8864 18.8038 15.1282 18.489 16.0883 19.0607C17.0483 19.6324 17.3632 20.8742 16.7914 21.8343C15.5458 23.926 14.8373 26.3746 14.8373 29C14.8373 36.8119 21.1882 43.1628 29.0001 43.1628C36.812 43.1628 43.1629 36.8119 43.1629 29C43.1629 21.1881 36.812 14.8372 29.0001 14.8372C26.8416 14.8372 24.7949 15.3115 22.9973 16.1753C21.9902 16.6593 20.7814 16.2351 20.2974 15.2279C19.8134 14.2208 20.2376 13.012 21.2448 12.528Z" fill="#F79B1D"/>
</svg>
