<svg width="15" height="25" viewBox="0 0 15 25" fill="none" xmlns="http://www.w3.org/2000/svg">
<path fill-rule="evenodd" clip-rule="evenodd" d="M2.01608 0C3.12953 0 4.03216 0.902629 4.03216 2.01608V13.0373C4.03216 13.4501 4.18977 14.0483 4.54022 14.6628C4.89074 15.2775 5.32514 15.7172 5.67822 15.9264L5.68358 15.9296L5.68358 15.9296L14.0167 20.9026C14.9728 21.4732 15.2854 22.7109 14.7148 23.667C14.1442 24.6231 12.9065 24.9357 11.9504 24.3651L3.62262 19.3953C3.62169 19.3947 3.62075 19.3942 3.61982 19.3936C2.52263 18.7426 1.64084 17.7181 1.0376 16.6603C0.433769 15.6015 0 14.3181 0 13.0373V2.01608C0 0.902629 0.902629 0 2.01608 0Z" fill="#F79B1D"/>
</svg>
