<svg width="52" height="50" viewBox="0 0 52 50" fill="none" xmlns="http://www.w3.org/2000/svg">
<path fill-rule="evenodd" clip-rule="evenodd" d="M21.3333 44.6667C21.3333 43.5621 22.2287 42.6667 23.3333 42.6667H49.9999C51.1045 42.6667 51.9999 43.5621 51.9999 44.6667C51.9999 45.7713 51.1045 46.6667 49.9999 46.6667H23.3333C22.2287 46.6667 21.3333 45.7713 21.3333 44.6667Z" fill="#F79B1D"/>
<path fill-rule="evenodd" clip-rule="evenodd" d="M21.3333 26C21.3333 24.8954 22.2287 24 23.3333 24H49.9999C51.1045 24 51.9999 24.8954 51.9999 26C51.9999 27.1046 51.1045 28 49.9999 28H23.3333C22.2287 28 21.3333 27.1046 21.3333 26Z" fill="#F79B1D"/>
<path fill-rule="evenodd" clip-rule="evenodd" d="M21.3333 7.33331C21.3333 6.22874 22.2287 5.33331 23.3333 5.33331H49.9999C51.1045 5.33331 51.9999 6.22874 51.9999 7.33331C51.9999 8.43788 51.1045 9.33331 49.9999 9.33331H23.3333C22.2287 9.33331 21.3333 8.43788 21.3333 7.33331Z" fill="#F79B1D"/>
<path fill-rule="evenodd" clip-rule="evenodd" d="M14.0809 0.585786C14.8619 1.36683 14.8619 2.63317 14.0809 3.41421L6.08088 11.4142C5.29983 12.1953 4.0335 12.1953 3.25245 11.4142L0.585786 8.74755C-0.195262 7.9665 -0.195262 6.70017 0.585786 5.91912C1.36683 5.13807 2.63317 5.13807 3.41421 5.91912L4.66667 7.17157L11.2525 0.585786C12.0335 -0.195262 13.2998 -0.195262 14.0809 0.585786Z" fill="#F79B1D"/>
<path fill-rule="evenodd" clip-rule="evenodd" d="M14.0809 19.2525C14.8619 20.0335 14.8619 21.2999 14.0809 22.0809L6.08088 30.0809C5.29983 30.8619 4.0335 30.8619 3.25245 30.0809L0.585786 27.4142C-0.195262 26.6332 -0.195262 25.3669 0.585786 24.5858C1.36683 23.8048 2.63317 23.8048 3.41421 24.5858L4.66667 25.8383L11.2525 19.2525C12.0335 18.4714 13.2998 18.4714 14.0809 19.2525Z" fill="#F79B1D"/>
<path fill-rule="evenodd" clip-rule="evenodd" d="M14.0809 37.9191C14.8619 38.7001 14.8619 39.9665 14.0809 40.7475L6.08088 48.7475C5.29983 49.5286 4.0335 49.5286 3.25245 48.7475L0.585786 46.0809C-0.195262 45.2998 -0.195262 44.0335 0.585786 43.2524C1.36683 42.4714 2.63317 42.4714 3.41421 43.2524L4.66667 44.5049L11.2525 37.9191C12.0335 37.1381 13.2998 37.1381 14.0809 37.9191Z" fill="#F79B1D"/>
</svg>
